{
  "accessors": [
    {
      "bufferView": 2,
      "componentType": 5126,
      "count": 192,
      "max": [
        2.1996443271636963,
        1.0,
        0.016218362376093864
      ],
      "min": [
        -2.1996443271636963,
        -1.0,
        0.0
      ],
      "type": "VEC3"
    },
    {
      "bufferView": 2,
      "byteOffset": 2304,
      "componentType": 5126,
      "count": 192,
      "max": [
        0.9992295503616333,
        1.0,
        1.0
      ],
      "min": [
        -0.9992295503616333,
        -1.0,
        -1.0
      ],
      "type": "VEC3"
    },
    {
      "bufferView": 3,
      "componentType": 5126,
      "count": 192,
      "max": [
        1.2225810678501148e-05,
        1.2535873793240171e-05,
        1.0,
        1.0
      ],
      "min": [
        -1.9235101717640646e-05,
        -1.0,
        -1.0,
        1.0
      ],
      "type": "VEC4"
    },
    {
      "bufferView": 1,
      "componentType": 5126,
      "count": 192,
      "max": [
        0.9997387528419495,
        0.9347826242446899
      ],
      "min": [
        0.03221680968999863,
        0.02518553100526333
      ],
      "type": "VEC2"
    },
    {
      "bufferView": 1,
      "byteOffset": 1536,
      "componentType": 5126,
      "count": 192,
      "max": [
        0.9997387528419495,
        0.9347826242446899
      ],
      "min": [
        0.03221680968999863,
        0.02518553100526333
      ],
      "type": "VEC2"
    },
    {
      "bufferView": 1,
      "byteOffset": 3072,
      "componentType": 5126,
      "count": 192,
      "max": [
        0.9997387528419495,
        0.9347826242446899
      ],
      "min": [
        0.03221680968999863,
        0.02518553100526333
      ],
      "type": "VEC2"
    },
    {
      "bufferView": 1,
      "byteOffset": 4608,
      "componentType": 5126,
      "count": 192,
      "max": [
        0.9997387528419495,
        0.9347826242446899
      ],
      "min": [
        0.03221680968999863,
        0.02518553100526333
      ],
      "type": "VEC2"
    },
    {
      "bufferView": 0,
      "componentType": 5125,
      "count": 540,
      "type": "SCALAR"
    }
  ],
  "asset": {
    "extras": {
      "author": "Einheri (https://sketchfab.com/Einheri)",
      "license": "CC-BY-4.0 (http://creativecommons.org/licenses/by/4.0/)",
      "source": "https://sketchfab.com/3d-models/fire-exit-sign-2878901520ff4100aa237a9b1365b7fb",
      "title": "Fire Exit Sign"
    },
    "generator": "Sketchfab-12.67.0",
    "version": "2.0"
  },
  "bufferViews": [
    {
      "buffer": 0,
      "byteLength": 2160,
      "name": "floatBufferViews",
      "target": 34963
    },
    {
      "buffer": 0,
      "byteLength": 6144,
      "byteOffset": 2160,
      "byteStride": 8,
      "name": "floatBufferViews",
      "target": 34962
    },
    {
      "buffer": 0,
      "byteLength": 4608,
      "byteOffset": 8304,
      "byteStride": 12,
      "name": "floatBufferViews",
      "target": 34962
    },
    {
      "buffer": 0,
      "byteLength": 3072,
      "byteOffset": 12912,
      "byteStride": 16,
      "name": "floatBufferViews",
      "target": 34962
    }
  ],
  "buffers": [
    {
      "byteLength": 15984,
      "uri": "scene.bin"
    }
  ],
  "images": [
    {
      "uri": "textures/Scene_-_Root_baseColor.png"
    },
    {
      "uri": "textures/Scene_-_Root_metallicRoughness.png"
    },
    {
      "uri": "textures/Scene_-_Root_normal.png"
    }
  ],
  "materials": [
    {
      "doubleSided": true,
      "name": "Scene_-_Root",
      "normalTexture": {
        "index": 2
      },
      "pbrMetallicRoughness": {
        "baseColorTexture": {
          "index": 0
        },
        "metallicRoughnessTexture": {
          "index": 1
        }
      }
    }
  ],
  "meshes": [
    {
      "name": "Object_0",
      "primitives": [
        {
          "attributes": {
            "NORMAL": 1,
            "POSITION": 0,
            "TANGENT": 2,
            "TEXCOORD_0": 3,
            "TEXCOORD_1": 4,
            "TEXCOORD_2": 5,
            "TEXCOORD_3": 6
          },
          "indices": 7,
          "material": 0,
          "mode": 4
        }
      ]
    }
  ],
  "nodes": [
    {
      "children": [
        1
      ],
      "matrix": [
        1.0,
        0.0,
        0.0,
        0.0,
        0.0,
        2.220446049250313e-16,
        -1.0,
        0.0,
        0.0,
        1.0,
        2.220446049250313e-16,
        0.0,
        0.0,
        0.0,
        0.0,
        1.0
      ],
      "name": "Sketchfab_model"
    },
    {
      "children": [
        2
      ],
      "name": "root"
    },
    {
      "children": [
        3
      ],
      "matrix": [
        1.0,
        0.0,
        0.0,
        0.0,
        0.0,
        2.220446049250313e-16,
        1.0,
        0.0,
        0.0,
        -1.0,
        2.220446049250313e-16,
        0.0,
        0.0,
        0.0,
        0.0,
        1.0
      ],
      "name": "GLTF_SceneRootNode"
    },
    {
      "children": [
        4
      ],
      "matrix": [
        1.0,
        0.0,
        -0.0,
        0.0,
        -0.0,
        0.0,
        -1.0,
        0.0,
        0.0,
        1.0,
        0.0,
        0.0,
        0.0,
        0.0,
        0.0,
        1.0
      ],
      "name": "RootNode (gltf orientation matrix)_0"
    },
    {
      "children": [
        5
      ],
      "matrix": [
        -0.000897150079254061,
        7.177762199717108e-06,
        1.719774538699778e-19,
        0.0,
        -1.7664652653632166e-19,
        -3.9842741356416914e-19,
        -0.0008971787756308913,
        0.0,
        -7.177762199717108e-06,
        -0.000897150079254061,
        7.968548271283383e-19,
        0.0,
        0.007441303227096796,
        0.8109301328659058,
        0.8109598755836487,
        1.0
      ],
      "name": "RootNode (model correction matrix)_1"
    },
    {
      "children": [
        6
      ],
      "matrix": [
        1.0,
        0.0,
        0.0,
        0.0,
        0.0,
        0.0,
        1.0,
        0.0,
        0.0,
        -1.0,
        0.0,
        0.0,
        0.0,
        0.0,
        0.0,
        1.0
      ],
      "name": "Sign.fbx_2"
    },
    {
      "children": [
        7
      ],
      "name": "RootNode_3"
    },
    {
      "children": [
        8
      ],
      "matrix": [
        100.0,
        0.0,
        0.0,
        0.0,
        0.0,
        -1.6292067812173627e-05,
        -100.0,
        0.0,
        0.0,
        100.0,
        -1.6292067812173627e-05,
        0.0,
        0.0,
        0.0,
        0.0,
        1.0
      ],
      "name": "Plane_4"
    },
    {
      "children": [
        9
      ],
      "name": "Plane__0_5"
    },
    {
      "mesh": 0,
      "name": "Object_9"
    }
  ],
  "samplers": [
    {
      "magFilter": 9729,
      "minFilter": 9987,
      "wrapS": 10497,
      "wrapT": 10497
    }
  ],
  "scene": 0,
  "scenes": [
    {
      "name": "Sketchfab_Scene",
      "nodes": [
        0
      ]
    }
  ],
  "textures": [
    {
      "sampler": 0,
      "source": 0
    },
    {
      "sampler": 0,
      "source": 1
    },
    {
      "sampler": 0,
      "source": 2
    }
  ]
}
