{
  "accessors": [
    {
      "bufferView": 1,
      "componentType": 5126,
      "count": 65532,
      "max": [
        2.744921922683716,
        -13.486145973205566,
        7.375265121459961
      ],
      "min": [
        -0.289000004529953,
        -15.82589054107666,
        0.06312599778175354
      ],
      "type": "VEC3"
    },
    {
      "bufferView": 1,
      "byteOffset": 786384,
      "componentType": 5126,
      "count": 65532,
      "max": [
        0.999995231628418,
        0.9999918937683105,
        0.9999872446060181
      ],
      "min": [
        -0.9999814033508301,
        -0.9998763799667358,
        -0.9999995231628418
      ],
      "type": "VEC3"
    },
    {
      "bufferView": 2,
      "componentType": 5126,
      "count": 65532,
      "max": [
        0.5882350206375122,
        0.5882350206375122,
        0.5882350206375122,
        1.0
      ],
      "min": [
        0.5882350206375122,
        0.5882350206375122,
        0.5882350206375122,
        1.0
      ],
      "type": "VEC4"
    },
    {
      "bufferView": 0,
      "componentType": 5125,
      "count": 334002,
      "type": "SCALAR"
    },
    {
      "bufferView": 1,
      "byteOffset": 1572768,
      "componentType": 5126,
      "count": 65532,
      "max": [
        2.51424503326416,
        -13.482158660888672,
        6.918275833129883
      ],
      "min": [
        -0.289000004529953,
        -15.764033317565918,
        0.09180299937725067
      ],
      "type": "VEC3"
    },
    {
      "bufferView": 1,
      "byteOffset": 2359152,
      "componentType": 5126,
      "count": 65532,
      "max": [
        0.9999907612800598,
        0.9999918937683105,
        0.9999645352363586
      ],
      "min": [
        -0.9999814033508301,
        -0.9999945759773254,
        -0.9999889135360718
      ],
      "type": "VEC3"
    },
    {
      "bufferView": 2,
      "byteOffset": 1048512,
      "componentType": 5126,
      "count": 65532,
      "max": [
        0.5882350206375122,
        0.5882350206375122,
        0.5882350206375122,
        1.0
      ],
      "min": [
        0.5882350206375122,
        0.5882350206375122,
        0.5882350206375122,
        1.0
      ],
      "type": "VEC4"
    },
    {
      "bufferView": 0,
      "byteOffset": 1336008,
      "componentType": 5125,
      "count": 321819,
      "type": "SCALAR"
    },
    {
      "bufferView": 1,
      "byteOffset": 3145536,
      "componentType": 5126,
      "count": 65532,
      "max": [
        2.5872349739074707,
        -13.796175003051758,
        7.372220039367676
      ],
      "min": [
        -0.2387229949235916,
        -15.912068367004395,
        0.09284300357103348
      ],
      "type": "VEC3"
    },
    {
      "bufferView": 1,
      "byteOffset": 3931920,
      "componentType": 5126,
      "count": 65532,
      "max": [
        0.9999806880950928,
        0.99996417760849,
        0.9999998211860657
      ],
      "min": [
        -1.0,
        -0.9999505877494812,
        -0.9999969005584717
      ],
      "type": "VEC3"
    },
    {
      "bufferView": 2,
      "byteOffset": 2097024,
      "componentType": 5126,
      "count": 65532,
      "max": [
        0.5882350206375122,
        0.5882350206375122,
        0.5882350206375122,
        1.0
      ],
      "min": [
        0.5882350206375122,
        0.5882350206375122,
        0.5882350206375122,
        1.0
      ],
      "type": "VEC4"
    },
    {
      "bufferView": 0,
      "byteOffset": 2623284,
      "componentType": 5125,
      "count": 328086,
      "type": "SCALAR"
    },
    {
      "bufferView": 1,
      "byteOffset": 4718304,
      "componentType": 5126,
      "count": 25000,
      "max": [
        2.744304895401001,
        -13.77299976348877,
        7.362783908843994
      ],
      "min": [
        0.31440800428390503,
        -15.92411994934082,
        0.07781500369310379
      ],
      "type": "VEC3"
    },
    {
      "bufferView": 1,
      "byteOffset": 5018304,
      "componentType": 5126,
      "count": 25000,
      "max": [
        0.9998228549957275,
        0.9999726414680481,
        0.9999998211860657
      ],
      "min": [
        -0.9999318718910217,
        -0.9999223947525024,
        -0.9999964237213135
      ],
      "type": "VEC3"
    },
    {
      "bufferView": 2,
      "byteOffset": 3145536,
      "componentType": 5126,
      "count": 25000,
      "max": [
        0.5882350206375122,
        0.5882350206375122,
        0.5882350206375122,
        1.0
      ],
      "min": [
        0.5882350206375122,
        0.5882350206375122,
        0.5882350206375122,
        1.0
      ],
      "type": "VEC4"
    },
    {
      "bufferView": 0,
      "byteOffset": 3935628,
      "componentType": 5125,
      "count": 114129,
      "type": "SCALAR"
    }
  ],
  "asset": {
    "extras": {
      "author": "jerryfisher (https://sketchfab.com/jerryfisher)",
      "license": "CC-BY-4.0 (http://creativecommons.org/licenses/by/4.0/)",
      "source": "https://sketchfab.com/3d-models/david-by-michelangelo-8f4827cf36964a17b90bad11f48298ac",
      "title": "David by Michelangelo"
    },
    "generator": "Sketchfab-12.68.0",
    "version": "2.0"
  },
  "bufferViews": [
    {
      "buffer": 0,
      "byteLength": 4392144,
      "name": "floatBufferViews",
      "target": 34963
    },
    {
      "buffer": 0,
      "byteLength": 5318304,
      "byteOffset": 4392144,
      "byteStride": 12,
      "name": "floatBufferViews",
      "target": 34962
    },
    {
      "buffer": 0,
      "byteLength": 3545536,
      "byteOffset": 9710448,
      "byteStride": 16,
      "name": "floatBufferViews",
      "target": 34962
    }
  ],
  "buffers": [
    {
      "byteLength": 13255984,
      "uri": "scene.bin"
    }
  ],
  "materials": [
    {
      "doubleSided": true,
      "name": "Scene_-_Root",
      "pbrMetallicRoughness": {
        "baseColorFactor": [
          0.5,
          0.5,
          0.5,
          1.0
        ],
        "metallicFactor": 0.0,
        "roughnessFactor": 0.6
      }
    }
  ],
  "meshes": [
    {
      "name": "Object_0",
      "primitives": [
        {
          "attributes": {
            "COLOR_0": 2,
            "NORMAL": 1,
            "POSITION": 0
          },
          "indices": 3,
          "material": 0,
          "mode": 4
        }
      ]
    },
    {
      "name": "Object_1",
      "primitives": [
        {
          "attributes": {
            "COLOR_0": 6,
            "NORMAL": 5,
            "POSITION": 4
          },
          "indices": 7,
          "material": 0,
          "mode": 4
        }
      ]
    },
    {
      "name": "Object_2",
      "primitives": [
        {
          "attributes": {
            "COLOR_0": 10,
            "NORMAL": 9,
            "POSITION": 8
          },
          "indices": 11,
          "material": 0,
          "mode": 4
        }
      ]
    },
    {
      "name": "Object_3",
      "primitives": [
        {
          "attributes": {
            "COLOR_0": 14,
            "NORMAL": 13,
            "POSITION": 12
          },
          "indices": 15,
          "material": 0,
          "mode": 4
        }
      ]
    }
  ],
  "nodes": [
    {
      "children": [
        1
      ],
      "matrix": [
        1.0,
        0.0,
        0.0,
        0.0,
        0.0,
        2.220446049250313e-16,
        -1.0,
        0.0,
        0.0,
        1.0,
        2.220446049250313e-16,
        0.0,
        0.0,
        0.0,
        0.0,
        1.0
      ],
      "name": "Sketchfab_model"
    },
    {
      "children": [
        2,
        3,
        4,
        5
      ],
      "name": "b56becd5ff494f408227f635b1929f0f.obj.cleaner"
    },
    {
      "mesh": 0,
      "name": "Object_2"
    },
    {
      "mesh": 1,
      "name": "Object_3"
    },
    {
      "mesh": 2,
      "name": "Object_4"
    },
    {
      "mesh": 3,
      "name": "Object_5"
    }
  ],
  "scene": 0,
  "scenes": [
    {
      "name": "Sketchfab_Scene",
      "nodes": [
        0
      ]
    }
  ]
}
