{
  "accessors": [
    {
      "bufferView": 2,
      "componentType": 5126,
      "count": 238,
      "max": [
        5.075531005859375,
        7.311009883880615,
        6.408133029937744
      ],
      "min": [
        1.101065993309021,
        5.304450035095215,
        -0.9937350153923035
      ],
      "type": "VEC3"
    },
    {
      "bufferView": 2,
      "byteOffset": 2856,
      "componentType": 5126,
      "count": 238,
      "max": [
        0.9998751878738403,
        1.0,
        0.9992917776107788
      ],
      "min": [
        -0.9996970295906067,
        -1.0,
        -1.0
      ],
      "type": "VEC3"
    },
    {
      "bufferView": 1,
      "componentType": 5126,
      "count": 238,
      "max": [
        0.875,
        1.0
      ],
      "min": [
        0.125,
        0.0
      ],
      "type": "VEC2"
    },
    {
      "bufferView": 0,
      "componentType": 5125,
      "count": 516,
      "type": "SCALAR"
    },
    {
      "bufferView": 2,
      "byteOffset": 5712,
      "componentType": 5126,
      "count": 65532,
      "max": [
        5.38900089263916,
        5.326414108276367,
        6.292816162109375
      ],
      "min": [
        0.9719070196151733,
        0.770205020904541,
        0.4928489923477173
      ],
      "type": "VEC3"
    },
    {
      "bufferView": 2,
      "byteOffset": 792096,
      "componentType": 5126,
      "count": 65532,
      "max": [
        0.9999994039535522,
        1.0,
        0.9999990463256836
      ],
      "min": [
        -0.9999985694885254,
        -0.9999479055404663,
        -0.9998981952667236
      ],
      "type": "VEC3"
    },
    {
      "bufferView": 1,
      "byteOffset": 1904,
      "componentType": 5126,
      "count": 65532,
      "max": [
        0.6232540011405945,
        0.9251909852027893
      ],
      "min": [
        0.0505950003862381,
        0.05154599994421005
      ],
      "type": "VEC2"
    },
    {
      "bufferView": 0,
      "byteOffset": 2064,
      "componentType": 5125,
      "count": 347100,
      "type": "SCALAR"
    },
    {
      "bufferView": 2,
      "byteOffset": 1578480,
      "componentType": 5126,
      "count": 65532,
      "max": [
        5.346306800842285,
        5.326414108276367,
        6.293953895568848
      ],
      "min": [
        1.003242015838623,
        -4.8656768798828125,
        0.4918319880962372
      ],
      "type": "VEC3"
    },
    {
      "bufferView": 2,
      "byteOffset": 2364864,
      "componentType": 5126,
      "count": 65532,
      "max": [
        0.9999938011169434,
        0.9999988079071045,
        1.0
      ],
      "min": [
        -0.9999985694885254,
        -0.9985732436180115,
        -0.999937891960144
      ],
      "type": "VEC3"
    },
    {
      "bufferView": 1,
      "byteOffset": 526160,
      "componentType": 5126,
      "count": 65532,
      "max": [
        0.9813309907913208,
        0.9074680209159851
      ],
      "min": [
        0.04770199954509735,
        0.0007699999841861427
      ],
      "type": "VEC2"
    },
    {
      "bufferView": 0,
      "byteOffset": 1390464,
      "componentType": 5125,
      "count": 330777,
      "type": "SCALAR"
    },
    {
      "bufferView": 2,
      "byteOffset": 3151248,
      "componentType": 5126,
      "count": 65532,
      "max": [
        4.833988189697266,
        5.326414108276367,
        6.293953895568848
      ],
      "min": [
        1.1537599563598633,
        -4.863594055175781,
        0.4918319880962372
      ],
      "type": "VEC3"
    },
    {
      "bufferView": 2,
      "byteOffset": 3937632,
      "componentType": 5126,
      "count": 65532,
      "max": [
        0.9999984502792358,
        0.9977459907531738,
        0.9999990463256836
      ],
      "min": [
        -0.9999991655349731,
        -0.9985732436180115,
        -0.9999889135360718
      ],
      "type": "VEC3"
    },
    {
      "bufferView": 1,
      "byteOffset": 1050416,
      "componentType": 5126,
      "count": 65532,
      "max": [
        0.9826409816741943,
        0.9120280146598816
      ],
      "min": [
        0.05047399923205376,
        9.000000318337698e-06
      ],
      "type": "VEC2"
    },
    {
      "bufferView": 0,
      "byteOffset": 2713572,
      "componentType": 5125,
      "count": 309951,
      "type": "SCALAR"
    },
    {
      "bufferView": 2,
      "byteOffset": 4724016,
      "componentType": 5126,
      "count": 65532,
      "max": [
        5.407361030578613,
        4.30110502243042,
        6.291755199432373
      ],
      "min": [
        0.9385719895362854,
        -4.728816986083984,
        0.5910120010375977
      ],
      "type": "VEC3"
    },
    {
      "bufferView": 2,
      "byteOffset": 5510400,
      "componentType": 5126,
      "count": 65532,
      "max": [
        0.9999948740005493,
        0.997916042804718,
        1.0
      ],
      "min": [
        -0.9999983310699463,
        -0.9991400241851807,
        -0.9999972581863403
      ],
      "type": "VEC3"
    },
    {
      "bufferView": 1,
      "byteOffset": 1574672,
      "componentType": 5126,
      "count": 65532,
      "max": [
        0.9292510151863098,
        0.9170100092887878
      ],
      "min": [
        0.06220899894833565,
        0.00864300038665533
      ],
      "type": "VEC2"
    },
    {
      "bufferView": 0,
      "byteOffset": 3953376,
      "componentType": 5125,
      "count": 309843,
      "type": "SCALAR"
    },
    {
      "bufferView": 2,
      "byteOffset": 6296784,
      "componentType": 5126,
      "count": 65532,
      "max": [
        5.4126667976379395,
        2.416623115539551,
        6.272106170654297
      ],
      "min": [
        0.915103018283844,
        -4.8119659423828125,
        2.8129189014434814
      ],
      "type": "VEC3"
    },
    {
      "bufferView": 2,
      "byteOffset": 7083168,
      "componentType": 5126,
      "count": 65532,
      "max": [
        0.9999932050704956,
        0.9585264325141907,
        0.9999996423721313
      ],
      "min": [
        -0.99998939037323,
        -0.999885082244873,
        -0.9999991655349731
      ],
      "type": "VEC3"
    },
    {
      "bufferView": 1,
      "byteOffset": 2098928,
      "componentType": 5126,
      "count": 65532,
      "max": [
        0.932886004447937,
        0.6894850134849548
      ],
      "min": [
        0.17126299440860748,
        0.23180100321769714
      ],
      "type": "VEC2"
    },
    {
      "bufferView": 0,
      "byteOffset": 5192748,
      "componentType": 5125,
      "count": 346797,
      "type": "SCALAR"
    },
    {
      "bufferView": 2,
      "byteOffset": 7869552,
      "componentType": 5126,
      "count": 65532,
      "max": [
        5.402371883392334,
        4.406033039093018,
        6.267270088195801
      ],
      "min": [
        0.9195380210876465,
        -4.843578815460205,
        3.2835350036621094
      ],
      "type": "VEC3"
    },
    {
      "bufferView": 2,
      "byteOffset": 8655936,
      "componentType": 5126,
      "count": 65532,
      "max": [
        0.9999878406524658,
        0.9999513626098633,
        0.9999958276748657
      ],
      "min": [
        -0.9999986886978149,
        -0.9999008178710938,
        -0.9999972581863403
      ],
      "type": "VEC3"
    },
    {
      "bufferView": 1,
      "byteOffset": 2623184,
      "componentType": 5126,
      "count": 65532,
      "max": [
        0.979013979434967,
        0.6815400123596191
      ],
      "min": [
        0.1882230043411255,
        0.02015100046992302
      ],
      "type": "VEC2"
    },
    {
      "bufferView": 0,
      "byteOffset": 6579936,
      "componentType": 5125,
      "count": 286068,
      "type": "SCALAR"
    },
    {
      "bufferView": 2,
      "byteOffset": 9442320,
      "componentType": 5126,
      "count": 65532,
      "max": [
        5.413261890411377,
        4.35679292678833,
        6.27833890914917
      ],
      "min": [
        0.915103018283844,
        -0.04286300018429756,
        1.2141189575195313
      ],
      "type": "VEC3"
    },
    {
      "bufferView": 2,
      "byteOffset": 10228704,
      "componentType": 5126,
      "count": 65532,
      "max": [
        0.9999914169311523,
        0.9992226362228394,
        0.9999997615814209
      ],
      "min": [
        -0.9999985694885254,
        -0.9999983310699463,
        -0.9999991655349731
      ],
      "type": "VEC3"
    },
    {
      "bufferView": 1,
      "byteOffset": 3147440,
      "componentType": 5126,
      "count": 65532,
      "max": [
        0.9959560036659241,
        0.9627249836921692
      ],
      "min": [
        0.16738300025463104,
        0.028356999158859253
      ],
      "type": "VEC2"
    },
    {
      "bufferView": 0,
      "byteOffset": 7724208,
      "componentType": 5125,
      "count": 317913,
      "type": "SCALAR"
    },
    {
      "bufferView": 2,
      "byteOffset": 11015088,
      "componentType": 5126,
      "count": 10738,
      "max": [
        4.838665962219238,
        3.378096103668213,
        6.285789966583252
      ],
      "min": [
        1.362246036529541,
        2.446384906768799,
        1.2621710300445557
      ],
      "type": "VEC3"
    },
    {
      "bufferView": 2,
      "byteOffset": 11143944,
      "componentType": 5126,
      "count": 10738,
      "max": [
        0.9999970197677612,
        0.9750714898109436,
        0.9999986886978149
      ],
      "min": [
        -0.9999943971633911,
        -0.9851934313774109,
        -0.9993664026260376
      ],
      "type": "VEC3"
    },
    {
      "bufferView": 1,
      "byteOffset": 3671696,
      "componentType": 5126,
      "count": 10738,
      "max": [
        0.9500570297241211,
        0.962090015411377
      ],
      "min": [
        0.10366400331258774,
        0.1574230045080185
      ],
      "type": "VEC2"
    },
    {
      "bufferView": 0,
      "byteOffset": 8995860,
      "componentType": 5125,
      "count": 33147,
      "type": "SCALAR"
    }
  ],
  "asset": {
    "extras": {
      "author": "danderson4 (https://sketchfab.com/danderson4)",
      "license": "CC-BY-NC-ND-4.0 (http://creativecommons.org/licenses/by-nc-nd/4.0/)",
      "source": "https://sketchfab.com/3d-models/statue-of-hatshepsut-b19723439bd2426fb915d67482235d8d",
      "title": "Statue of Hatshepsut"
    },
    "generator": "Sketchfab-12.67.0",
    "version": "2.0"
  },
  "bufferViews": [
    {
      "buffer": 0,
      "byteLength": 9128448,
      "name": "floatBufferViews",
      "target": 34963
    },
    {
      "buffer": 0,
      "byteLength": 3757600,
      "byteOffset": 9128448,
      "byteStride": 8,
      "name": "floatBufferViews",
      "target": 34962
    },
    {
      "buffer": 0,
      "byteLength": 11272800,
      "byteOffset": 12886048,
      "byteStride": 12,
      "name": "floatBufferViews",
      "target": 34962
    }
  ],
  "buffers": [
    {
      "byteLength": 24158848,
      "uri": "scene.bin"
    }
  ],
  "images": [
    {
      "uri": "textures/fixed_final_baseColor.jpeg"
    }
  ],
  "materials": [
    {
      "doubleSided": true,
      "name": "Material",
      "pbrMetallicRoughness": {
        "baseColorFactor": [
          0.167949,
          0.072296,
          0.038514,
          1.0
        ],
        "metallicFactor": 0.0,
        "roughnessFactor": 0.6
      }
    },
    {
      "doubleSided": true,
      "name": "fixed_final",
      "pbrMetallicRoughness": {
        "baseColorTexture": {
          "index": 0
        },
        "metallicFactor": 0.0,
        "roughnessFactor": 0.6
      }
    }
  ],
  "meshes": [
    {
      "name": "Object_0",
      "primitives": [
        {
          "attributes": {
            "NORMAL": 1,
            "POSITION": 0,
            "TEXCOORD_0": 2
          },
          "indices": 3,
          "material": 0,
          "mode": 4
        }
      ]
    },
    {
      "name": "Object_1",
      "primitives": [
        {
          "attributes": {
            "NORMAL": 5,
            "POSITION": 4,
            "TEXCOORD_0": 6
          },
          "indices": 7,
          "material": 1,
          "mode": 4
        }
      ]
    },
    {
      "name": "Object_2",
      "primitives": [
        {
          "attributes": {
            "NORMAL": 9,
            "POSITION": 8,
            "TEXCOORD_0": 10
          },
          "indices": 11,
          "material": 1,
          "mode": 4
        }
      ]
    },
    {
      "name": "Object_3",
      "primitives": [
        {
          "attributes": {
            "NORMAL": 13,
            "POSITION": 12,
            "TEXCOORD_0": 14
          },
          "indices": 15,
          "material": 1,
          "mode": 4
        }
      ]
    },
    {
      "name": "Object_4",
      "primitives": [
        {
          "attributes": {
            "NORMAL": 17,
            "POSITION": 16,
            "TEXCOORD_0": 18
          },
          "indices": 19,
          "material": 1,
          "mode": 4
        }
      ]
    },
    {
      "name": "Object_5",
      "primitives": [
        {
          "attributes": {
            "NORMAL": 21,
            "POSITION": 20,
            "TEXCOORD_0": 22
          },
          "indices": 23,
          "material": 1,
          "mode": 4
        }
      ]
    },
    {
      "name": "Object_6",
      "primitives": [
        {
          "attributes": {
            "NORMAL": 25,
            "POSITION": 24,
            "TEXCOORD_0": 26
          },
          "indices": 27,
          "material": 1,
          "mode": 4
        }
      ]
    },
    {
      "name": "Object_7",
      "primitives": [
        {
          "attributes": {
            "NORMAL": 29,
            "POSITION": 28,
            "TEXCOORD_0": 30
          },
          "indices": 31,
          "material": 1,
          "mode": 4
        }
      ]
    },
    {
      "name": "Object_8",
      "primitives": [
        {
          "attributes": {
            "NORMAL": 33,
            "POSITION": 32,
            "TEXCOORD_0": 34
          },
          "indices": 35,
          "material": 1,
          "mode": 4
        }
      ]
    }
  ],
  "nodes": [
    {
      "children": [
        1
      ],
      "matrix": [
        0.3184465169906616,
        0.0,
        0.0,
        0.0,
        0.0,
        -0.3184465169906616,
        -1.4141866210988746e-16,
        0.0,
        0.0,
        1.4141866210988746e-16,
        -0.3184465169906616,
        0.0,
        0.0,
        3.623295068740844,
        3.1625497341156015,
        1.0
      ],
      "name": "Sketchfab_model"
    },
    {
      "children": [
        2,
        3,
        4,
        5,
        6,
        7,
        8,
        9,
        10
      ],
      "name": "Hatshepsut_Knealing.obj.cleaner.materialmerger.gles"
    },
    {
      "mesh": 0,
      "name": "Object_2"
    },
    {
      "mesh": 1,
      "name": "Object_3"
    },
    {
      "mesh": 2,
      "name": "Object_4"
    },
    {
      "mesh": 3,
      "name": "Object_5"
    },
    {
      "mesh": 4,
      "name": "Object_6"
    },
    {
      "mesh": 5,
      "name": "Object_7"
    },
    {
      "mesh": 6,
      "name": "Object_8"
    },
    {
      "mesh": 7,
      "name": "Object_9"
    },
    {
      "mesh": 8,
      "name": "Object_10"
    }
  ],
  "samplers": [
    {
      "magFilter": 9729,
      "minFilter": 9987,
      "wrapS": 10497,
      "wrapT": 10497
    }
  ],
  "scene": 0,
  "scenes": [
    {
      "name": "Sketchfab_Scene",
      "nodes": [
        0
      ]
    }
  ],
  "textures": [
    {
      "sampler": 0,
      "source": 0
    }
  ]
}
